<svg xmlns="http://www.w3.org/2000/svg" viewBox="0 0 180 140"><defs><linearGradient id="a" x2=".8" y2="1"><stop stop-color="#46525d"/><stop offset="1" stop-color="#10161e"/></linearGradient></defs><path fill="#28323c" stroke="#efbf58" stroke-width="3" d="M17 35 48 15 164 26 135 49Z"/><path fill="url(#a)" stroke="#be9447" stroke-width="3" d="m17 35 118 14v75L17 110Z"/><path fill="#111923" stroke="#d2a64e" stroke-width="3" d="m135 49 29-23v76l-29 22Z"/><path stroke="#d7af60" stroke-width="9" d="m35 37 0 75m83-63v72"/><path fill="#efbf58" d="m44 67 18 7 8-6 3-8 5 8 5-8 3 8 8 6 18-7-7 19-13-4-7 13-8-7-8 7-7-13-12 4Z"/><path stroke="#f8d77a" stroke-width="3" d="m23 51 105 12"/></svg>
